<?xml version="1.0" standalone="no"?>
<!DOCTYPE svg PUBLIC "-//W3C//DTD SVG 20010904//EN"
 "http://www.w3.org/TR/2001/REC-SVG-20010904/DTD/svg10.dtd">
<svg version="1.0" xmlns="http://www.w3.org/2000/svg"
 width="1473.934832pt" height="233.148983pt" viewBox="0 0 1473.934832 233.148983"
 preserveAspectRatio="xMidYMid meet">
<metadata>
Created by potrace 1.16, written by Peter Selinger 2001-2019
</metadata>
<g transform="translate(-100.273300,597.067454) scale(0.100000,-0.100000)"
fill="#061731" stroke="none">
<path d="M1977 5955 c-525 -105 -914 -526 -969 -1050 -51 -490 254 -982 729
-1177 207 -85 149 -82 1276 -85 l997 -4 0 686 0 685 -663 0 -663 0 -217 -218
c-119 -120 -217 -221 -217 -224 0 -3 295 -4 655 -2 l655 3 0 -245 0 -245 -752
3 c-835 4 -793 1 -943 72 -187 89 -322 248 -386 456 -33 107 -33 274 0 380 75
243 252 428 486 508 l80 27 867 3 866 3 212 219 212 220 -1078 -1 c-866 -1
-1092 -4 -1147 -14z"/>
<path d="M5461 5953 c-5 -10 -111 -234 -236 -498 -125 -264 -371 -777 -546
-1141 -175 -363 -319 -664 -319 -667 0 -4 111 -6 246 -5 l247 3 244 510 c256
534 494 1034 571 1195 l45 95 32 -70 c19 -38 146 -306 285 -595 138 -289 317
-663 397 -832 l146 -308 244 0 244 0 -7 23 c-4 12 -105 225 -224 472 -254 526
-371 771 -560 1175 -76 162 -177 376 -224 475 l-85 180 -245 3 c-226 2 -246 1
-255 -15z"/>
<path d="M7450 4805 l0 -1165 223 2 222 3 3 948 2 948 548 -3 547 -3 47 -23
c74 -37 134 -96 170 -170 45 -91 48 -215 6 -304 -33 -72 -93 -136 -160 -174
l-53 -29 -477 -3 c-263 -1 -478 -6 -478 -11 0 -9 36 -52 220 -261 119 -135
315 -360 771 -888 l29 -32 292 2 292 3 -189 216 c-105 118 -257 291 -339 385
l-149 169 72 12 c386 64 660 411 638 807 -18 311 -208 574 -496 685 -131 50
-142 51 -968 51 l-773 0 0 -1165z"/>
<path d="M10090 4805 l0 -1165 220 0 220 0 0 950 0 951 548 -3 547 -3 57 -28
c270 -133 269 -504 -4 -649 l-43 -23 -477 -3 c-263 -1 -478 -5 -478 -7 0 -4
250 -293 328 -378 l35 -39 321 5 c363 4 381 7 531 82 204 101 349 285 406 515
18 71 21 104 16 210 -6 144 -26 223 -88 339 -102 191 -226 294 -454 380 l-70
26 -807 3 -808 3 0 -1166z"/>
<path d="M12710 4805 l0 -1165 225 0 225 0 0 1165 0 1165 -225 0 -225 0 0
-1165z"/>
<path d="M13520 5755 l0 -215 425 0 425 0 0 -950 0 -950 225 0 225 0 0 950 0
950 278 1 277 0 145 170 c80 93 162 189 184 214 l38 45 -1111 0 -1111 0 0
-215z"/>
</g>
</svg>
